<?xml version="1.0" encoding="UTF-8"?>
<svg width="170px" height="33px" viewBox="0 0 170 33" version="1.1" xmlns="http://www.w3.org/2000/svg" xmlns:xlink="http://www.w3.org/1999/xlink">
    <!-- Generator: Sketch 53 (72520) - https://sketchapp.com -->
    <title>Group 2</title>
    <desc>Created with Sketch.</desc>
    <defs>
        <path d="M0.126897549,2.51132914 L4.37027027,9.35436729 L5.36860842,1.37359172 C4.64845757,1.2027086 4.01658328,0.795674513 3.56010057,0.233777597 L3.56010057,0.233777597 L0.126897549,2.51132914 Z" id="path-1"></path>
        <path d="M0.223885607,0.144775974 L9.05473539,14.384739 L12.4742904,12.1169777 C12.2268837,11.6414123 12.085467,11.0996891 12.085467,10.5238486 L12.085467,10.5238486 C12.085467,9.9269444 12.2370471,9.36712419 12.501296,8.87909862 L12.501296,8.87909862 L0.339748586,0.0172069805 C0.30170836,0.0605211039 0.264829667,0.104725244 0.223885607,0.144775974 L0.223885607,0.144775974 Z" id="path-3"></path>
        <path d="M0.544178504,0.582070617 C0.544178504,1.03657224 0.412054054,1.45725325 0.193685732,1.81741315 L0.193685732,1.81741315 L12.8979598,10.8688782 C13.3187253,10.4146733 13.9105267,10.1277914 14.5714393,10.1277914 L14.5714393,10.1277914 C14.7108234,10.1277914 14.846142,10.1455917 14.979428,10.1699188 L14.979428,10.1699188 L15.3577976,3.57015179 C15.3577976,3.57015179 15.4286512,2.33925933 14.23111,2.17163961 L14.23111,2.17163961 L0.547953488,0.257511364 C0.547953488,0.257511364 0.527917033,0.254544643 0.511074796,0.253061282 L0.511074796,0.253061282 C0.5267555,0.361346591 0.544178504,0.469335227 0.544178504,0.582070617 L0.544178504,0.582070617 Z" id="path-5"></path>
        <path d="M0.180618479,0.805464692 L2.31319422,16.0241489 C2.32597109,16.0241489 2.33787681,16.0220722 2.35036329,16.0220722 L2.35036329,16.0220722 C3.41461848,16.0220722 4.36010685,16.5332382 4.96991201,17.3265394 L4.96991201,17.3265394 L13.927369,11.3836043 C13.7943734,11.0857455 13.7145179,10.7564395 13.7145179,10.4075532 L13.7145179,10.4075532 C13.7145179,10.0301863 13.8091829,9.67892654 13.9636669,9.36326745 L13.9636669,9.36326745 L1.20247769,0.271158279 C0.914417348,0.528372971 0.568280327,0.719429789 0.180618479,0.805464692 L0.180618479,0.805464692 Z" id="path-7"></path>
        <path d="M0.396082967,6.04706696 C0.617645506,6.5024586 0.745704588,7.01421794 0.745704588,7.55683117 L0.745704588,7.55683117 C0.745704588,8.1854793 0.575539912,8.77170333 0.285156505,9.27693588 L0.285156505,9.27693588 L5.37702954,12.9874136 L9.72435952,10.1028709 C9.72435952,10.1028709 10.738088,9.43090869 10.8086512,8.19942289 L10.8086512,8.19942289 L11.2282552,0.88230276 C11.1803419,0.885566153 11.1350421,0.897433036 11.0868385,0.897433036 L11.0868385,0.897433036 C10.3986298,0.897433036 9.78824387,0.584443994 9.36544563,0.0964184253 L9.36544563,0.0964184253 L0.396082967,6.04706696 Z" id="path-9"></path>
        <path d="M1.1882489,1.16799797 C1.16066248,1.16799797 1.13365682,1.16503125 1.10636078,1.16414123 L1.10636078,1.16414123 L0.116443746,9.07727557 C0.291835324,9.03099472 0.472744186,8.95534334 0.654233815,8.83548782 L0.654233815,8.83548782 L8.53901446,3.60337906 L3.65679824,0.0459841721 C3.04699309,0.733670049 2.1682929,1.16799797 1.1882489,1.16799797 L1.1882489,1.16799797 Z" id="path-11"></path>
        <path d="M0.196589566,6.7872638 C0.298223759,7.05308198 0.358333124,7.33937054 0.358333124,7.64167938 L0.358333124,7.64167938 C0.358333124,7.99827922 0.27528347,8.33292532 0.136189818,8.63612419 L0.136189818,8.63612419 L12.3093526,17.5066193 C12.7728045,16.9565893 13.4040981,16.558752 14.1233777,16.3985491 L14.1233777,16.3985491 L11.9852847,1.13922078 C11.3078202,1.08225974 10.7157285,0.732780032 10.3309705,0.207373782 L10.3309705,0.207373782 L0.196589566,6.7872638 Z" id="path-13"></path>
        <path d="M0.373723444,0.504935877 C0.270927718,0.504935877 0.17306851,0.487135552 0.0740477687,0.473785308 L0.0740477687,0.473785308 L0.670204903,10.8694716 C0.670204903,10.8694716 0.74076807,12.1009574 1.75362539,12.7732163 L1.75362539,12.7732163 L7.26655437,16.430293 L10.2270132,14.4666205 L1.40748837,0.245051136 C1.09532621,0.405550731 0.747446889,0.504935877 0.373723444,0.504935877 L0.373723444,0.504935877 Z" id="path-15"></path>
        <path d="M1.31195223,1.87467086 C1.31195223,1.87467086 0.115282212,2.04258726 0.18584538,3.27347971 L0.18584538,3.27347971 L0.390565682,6.84748823 C0.572345695,6.80091071 0.759062225,6.76887013 0.954490258,6.76887013 L0.954490258,6.76887013 C1.68886989,6.76887013 2.33555374,7.12546997 2.75777121,7.67104992 L2.75777121,7.67104992 L12.9130597,1.07721631 C12.8253639,0.828308442 12.7696103,0.564566964 12.7696103,0.285398539 L12.7696103,0.285398539 C12.7696103,0.280948458 12.7710622,0.276498377 12.7710622,0.272048295 L12.7710622,0.272048295 L1.31195223,1.87467086 Z" id="path-17"></path>
    </defs>
    <g id="Page-1" stroke="none" stroke-width="1" fill="none" fill-rule="evenodd">
        <g id="home" transform="translate(-460.000000, -20.000000)">
            <g id="Group-2" transform="translate(460.000000, 20.000000)">
                <g id="Group-19-Copy-2" transform="translate(41.000000, 1.000000)" fill="#199CD7">
                    <path d="M-5.80256492e-05,8.46930809 L-5.80256492e-05,24.4949649 L5.65106002,24.4949649 L5.65106002,11.9131424 C6.02445508,11.8582785 6.60006953,11.7884245 7.38022439,11.7059787 C8.15689772,11.625032 8.90484834,11.5851582 9.61943422,11.5851582 C10.5861416,11.5851582 11.4016921,11.7002824 12.0715982,11.9317302 C12.7415043,12.1646769 13.2695377,12.5337341 13.6603405,13.0398012 C14.0496926,13.5464679 14.3305367,14.2015369 14.500842,15.0071069 C14.6714374,15.8141759 14.758766,16.7903337 14.758766,17.9352805 L14.758766,25.7793199 C14.7816862,26.5390201 14.8385513,27.2288663 14.9540224,27.7757065 C15.0680428,28.309955 15.238348,28.7317775 15.4640678,29.0252844 C15.6436572,29.258531 15.9047726,29.4327164 16.258439,29.5574343 C17.1630588,29.8674304 18.6665034,29.8638327 20.2372578,29.6971424 C20.2941229,29.6914462 20.3527288,29.6875487 20.4078532,29.6803535 L20.4078532,17.1590911 C20.4078532,15.7113436 20.244511,14.3775211 19.9175364,13.1609215 C19.5923027,11.9464205 19.0306144,10.9061049 18.2362432,10.0474698 C17.4421622,9.18493728 16.3756508,8.51697673 15.0375793,8.03819172 C13.6995078,7.5591069 12.032721,7.32076371 10.0404103,7.32076371 C7.92218396,7.32076371 5.99225084,7.44548166 4.25061096,7.6892213 C2.50577967,7.93535937 1.08937355,8.19588797 -5.80256492e-05,8.46930809" id="Fill-6"></path>
                    <path d="M84.7798555,7.95928363 C84.5648705,7.90591874 84.3266752,7.85285365 84.0440903,7.79409231 C83.5766937,7.69665641 83.09334,7.61421065 82.5957701,7.54825404 C82.0982001,7.4784 81.5988894,7.42353609 81.1013194,7.38486154 C80.6037495,7.34258935 80.168267,7.32070375 79.7934213,7.32070375 C77.8014007,7.32070375 75.9869386,7.4784 74.352066,7.79409231 C72.7169031,8.107686 71.3556214,8.44166627 70.2664799,8.79783195 L70.2664799,29.516901 L75.917598,29.516901 L75.917598,12.0345026 C76.1967014,11.951757 76.6887589,11.8582185 77.3888384,11.7481909 C78.0892079,11.6399621 78.7501201,11.5850982 79.3721551,11.5850982 C80.1363529,11.5850982 80.8079998,11.6363645 81.4407695,11.7098162 C82.0909469,10.5591732 82.8818365,9.56442761 83.8131482,8.73547298 C84.1259064,8.45815542 84.4456278,8.20152426 84.7798555,7.95928363" id="Fill-1"></path>
                    <polygon id="Fill-3" points="55.4380831 0.29968284 55.4380831 4.43935937 61.3291372 4.43935937 61.3291372 29.652172 67.2608093 29.652172 67.2608093 4.43935937 73.1483819 4.43935937 73.1483819 0.29968284"></polygon>
                    <path d="M98.5935288,16.460041 L88.0874046,16.460041 C88.1782147,15.8325538 88.34852,15.2179582 88.5991908,14.616254 C88.8498616,14.0142501 89.2000464,13.483899 89.6511959,13.0180055 C90.1026354,12.5539108 90.6553297,12.1776584 91.307538,11.8895479 C91.9632279,11.6032363 92.7253948,11.4581318 93.5981006,11.4581318 C94.4368613,11.4581318 95.1618918,11.588546 95.7697105,11.8490746 C96.3754983,12.1096032 96.8893154,12.4657688 97.3085508,12.9133744 C97.729817,13.3648773 98.0480877,13.8985262 98.2665542,14.5134217 C98.48328,15.1298162 98.5935288,15.7776899 98.5935288,16.460041 M104.244647,18.2639542 C104.244647,14.6291456 103.3026,11.898542 101.420829,10.0676465 C99.5352851,8.23615148 96.9125257,7.32085365 93.5502294,7.32085365 C92.1178662,7.32085365 90.7156764,7.56099566 89.3474316,8.03618304 C87.9771559,8.51526785 86.7635494,9.22520079 85.7042912,10.1683803 C84.6470638,11.1115598 83.7958275,12.2948813 83.1595763,13.7132481 C82.5215843,15.1352126 82.2015728,16.7886249 82.2015728,18.673185 C82.2015728,20.2858241 82.4505028,21.7683487 82.9480728,23.120759 C83.4456427,24.4746682 84.2098405,25.6474966 85.2386353,26.64554 C86.2639486,27.6417846 87.5721368,28.4215716 89.1608791,28.9813034 C90.7478807,29.5428339 92.6154362,29.8216505 94.7638359,29.8216505 C95.6043374,29.8216505 96.4306227,29.7814769 97.2395002,29.7005302 C98.0480877,29.6180844 98.8032915,29.5152521 99.5051117,29.3923329 C100.20345,29.2694138 100.825485,29.1336032 101.372957,28.9813034 C101.916658,28.832901 102.344887,28.6877964 102.655905,28.5519858 L101.909405,24.493256 C101.255455,24.7390943 100.35983,24.9723408 99.2242676,25.1902974 C98.0869649,25.4106525 96.8341911,25.5170824 95.4639153,25.5170824 C93.1289632,25.5170824 91.3464152,25.0475913 90.1185925,24.104112 C88.8869981,23.1612323 88.1938817,21.8289089 88.0395334,20.1077412 L104.150355,20.1077412 C104.180528,19.8364197 104.20548,19.5279227 104.221437,19.1849483 C104.235653,18.8455716 104.244647,18.5373744 104.244647,18.2639542" id="Fill-9"></path>
                    <path d="M39.1223438,16.460041 L28.6162197,16.460041 C28.7070298,15.8325538 28.8773351,15.2179582 29.1280059,14.616254 C29.3786767,14.0142501 29.7288615,13.483899 30.1800109,13.0180055 C30.6314505,12.5539108 31.1841448,12.1776584 31.8363531,11.8895479 C32.4920429,11.6032363 33.2545,11.4581318 34.1269156,11.4581318 C34.9656764,11.4581318 35.6907069,11.588546 36.2985256,11.8490746 C36.9046035,12.1096032 37.4181305,12.4657688 37.8373658,12.9133744 C38.258632,13.3648773 38.5769027,13.8985262 38.7953693,14.5134217 C39.0120951,15.1298162 39.1223438,15.7776899 39.1223438,16.460041 M44.7734619,18.2639542 C44.7734619,14.6291456 43.8314155,11.898542 41.9496436,10.0676465 C40.0643903,8.23615148 37.4413408,7.32085365 34.0790445,7.32085365 C32.6466813,7.32085365 31.2444915,7.56099566 29.8762466,8.03618304 C28.5059709,8.51526785 27.2923645,9.22520079 26.2331062,10.1683803 C25.1758789,11.1115598 24.3246426,12.2948813 23.6883913,13.7132481 C23.0503993,15.1352126 22.7303879,16.7886249 22.7303879,18.673185 C22.7303879,20.2858241 22.9793179,21.7683487 23.4768878,23.120759 C23.9744578,24.4746682 24.7386556,25.6474966 25.7677405,26.64554 C26.7930537,27.6417846 28.1009519,28.4215716 29.6896942,28.9813034 C31.2766957,29.5428339 33.1442513,29.8216505 35.2926509,29.8216505 C36.1334426,29.8216505 36.9597279,29.7814769 37.7683153,29.7005302 C38.5769027,29.6180844 39.3321066,29.5152521 40.0339268,29.3923329 C40.7322655,29.2694138 41.3543005,29.1336032 41.9017725,28.9813034 C42.4454728,28.832901 42.8737021,28.6877964 43.1847196,28.5519858 L42.4385097,24.493256 C41.7842705,24.7390943 40.8886446,24.9723408 39.7530827,25.1902974 C38.6157799,25.4106525 37.3630061,25.5170824 35.9930205,25.5170824 C33.6577783,25.5170824 31.8752303,25.0475913 30.6474075,24.104112 C29.4158131,23.1612323 28.7229869,21.8289089 28.5683485,20.1077412 L44.6791702,20.1077412 C44.7093435,19.8364197 44.7342946,19.5279227 44.7502516,19.1849483 C44.7644679,18.8455716 44.7734619,18.5373744 44.7734619,18.2639542" id="Fill-11"></path>
                    <path d="M52.7409349,20.7770209 L52.7409349,11.5089183 L58.6177727,11.5089183 L58.6177727,7.36954162 L52.7409349,7.36954162 L52.7409349,0.299592899 L47.0898168,1.91073294 L47.0898168,20.8192931 C47.0898168,22.2373602 47.2302389,23.5016284 47.511083,24.6082004 C47.7901864,25.7147724 48.27325,26.6576521 48.9594033,27.4374391 C49.6417849,28.215727 50.5693249,28.8099361 51.736801,29.2191669 C52.9042771,29.6301964 54.3598505,29.8337625 56.1049719,29.8337625 C57.0290304,29.8337625 57.8466118,29.7606107 58.6177727,29.6523819 L58.6177727,25.4485475 C58.0685599,25.5219992 57.4912047,25.5714667 56.8511818,25.5714667 C55.3567312,25.5714667 54.2957322,25.2027093 53.6739873,24.4651945 C53.0519524,23.7294785 52.7409349,22.4978888 52.7409349,20.7770209" id="Fill-13"></path>
                    <path d="M112.214963,7.32073373 L106.565586,8.9354714 L106.565586,29.3316529 L112.214963,29.3316529 L112.214963,19.4969231 C113.057205,20.0419645 113.912213,20.7060276 114.782888,21.4840158 C115.657045,22.2659014 116.513503,23.0876607 117.352554,23.9630848 C118.193056,24.8400079 118.978433,25.7409152 119.712457,26.6676055 C120.444451,27.5978935 121.089696,28.4880079 121.647613,29.3316529 L128.187394,29.3316529 C127.629187,28.4070611 126.929107,27.3940276 126.088606,26.3006469 C125.253327,25.2069665 124.352188,24.1135858 123.387512,23.023503 C122.424286,21.9280237 121.432628,20.8967022 120.403833,19.9262406 C119.37823,18.9572781 118.402818,18.1298225 117.469766,17.4489704 C119.209375,15.8914951 120.942311,14.2932465 122.664222,12.650927 C124.387874,11.0122051 126.027969,9.42894675 127.581316,7.89875345 L120.901113,7.89875345 C120.403833,8.41591321 119.805008,9.02361341 119.106379,9.72065483 C118.404559,10.4197949 117.663572,11.1426193 116.885158,11.8951243 C116.108484,12.6473294 115.314113,13.3959369 114.503785,14.1463432 C113.693457,14.9003471 112.931,15.601286 112.214963,16.2584536 L112.214963,7.32073373" id="Fill-16"></path>
                </g>
                <g id="Group-29">
                    <g id="Group-3" transform="translate(11.615336, 23.659598)">
                        <mask id="mask-2" fill="white">
                            <use xlink:href="#path-1"></use>
                        </mask>
                        <g id="Clip-2"></g>
                        <polygon id="Fill-1" fill="#209DD8" mask="url(#mask-2)" points="-0.366754243 9.85841315 5.86196983 9.85841315 5.86196983 -0.270268263 -0.366754243 -0.270268263"></polygon>
                    </g>
                    <g id="Group-6" transform="translate(2.323067, 11.199371)">
                        <mask id="mask-4" fill="white">
                            <use xlink:href="#path-3"></use>
                        </mask>
                        <g id="Clip-5"></g>
                        <polygon id="Fill-4" fill="#209DD8" mask="url(#mask-4)" points="-0.269475801 14.8887849 12.9949478 14.8887849 12.9949478 -0.487135552 -0.269475801 -0.487135552"></polygon>
                    </g>
                    <polygon id="Fill-7" fill="#209DD8" points="8.47138416 28.3407276 14.9469341 32.6374293 11.1716595 26.5494216"></polygon>
                    <g id="Group-10" transform="translate(16.842238, 0.222504)">
                        <mask id="mask-6" fill="white">
                            <use xlink:href="#path-5"></use>
                        </mask>
                        <g id="Clip-9"></g>
                        <polygon id="Fill-8" fill="#209DD8" mask="url(#mask-6)" points="-0.299966059 11.3732208 15.8520302 11.3732208 15.8520302 -0.25128125 -0.299966059 -0.25128125"></polygon>
                    </g>
                    <g id="Group-13" transform="translate(15.390321, 2.299209)">
                        <mask id="mask-8" fill="white">
                            <use xlink:href="#path-7"></use>
                        </mask>
                        <g id="Clip-12"></g>
                        <polygon id="Fill-11" fill="#209DD8" mask="url(#mask-8)" points="-0.312742929 17.8308819 14.4570283 17.8308819 14.4570283 -0.232887581 -0.312742929 -0.232887581"></polygon>
                    </g>
                    <g id="Group-16" transform="translate(20.326838, 14.166092)">
                        <mask id="mask-10" fill="white">
                            <use xlink:href="#path-9"></use>
                        </mask>
                        <g id="Clip-15"></g>
                        <polygon id="Fill-14" fill="#209DD8" mask="url(#mask-10)" points="-0.208495286 13.4920528 11.7213262 13.4920528 11.7213262 -0.407627435 -0.208495286 -0.407627435"></polygon>
                    </g>
                    <g id="Group-19" transform="translate(16.551854, 23.956270)">
                        <mask id="mask-12" fill="white">
                            <use xlink:href="#path-11"></use>
                        </mask>
                        <g id="Clip-18"></g>
                        <polygon id="Fill-17" fill="#209DD8" mask="url(#mask-12)" points="-0.377208045 9.58132143 9.03237586 9.58132143 9.03237586 -0.45835836 -0.377208045 -0.45835836"></polygon>
                    </g>
                    <g id="Group-22" transform="translate(2.903834, 2.002537)">
                        <mask id="mask-14" fill="white">
                            <use xlink:href="#path-13"></use>
                        </mask>
                        <g id="Clip-21"></g>
                        <polygon id="Fill-20" fill="#209DD8" mask="url(#mask-14)" points="-0.35717159 18.0109619 14.6167392 18.0109619 14.6167392 -0.29696875 -0.35717159 -0.29696875"></polygon>
                    </g>
                    <g id="Group-25" transform="translate(0.580767, 11.496043)">
                        <mask id="mask-16" fill="white">
                            <use xlink:href="#path-15"></use>
                        </mask>
                        <g id="Clip-24"></g>
                        <polygon id="Fill-23" fill="#209DD8" mask="url(#mask-16)" points="-0.419313639 16.9346356 10.720665 16.9346356 10.720665 -0.259291396 -0.419313639 -0.259291396"></polygon>
                    </g>
                    <g id="Group-28" transform="translate(0.000000, 0.519176)">
                        <mask id="mask-18" fill="white">
                            <use xlink:href="#path-17"></use>
                        </mask>
                        <g id="Clip-27"></g>
                        <polygon id="Fill-26" fill="#209DD8" mask="url(#mask-18)" points="-0.310419862 8.17509578 13.4067115 8.17509578 13.4067115 -0.231997565 -0.310419862 -0.231997565"></polygon>
                    </g>
                </g>
            </g>
        </g>
    </g>
</svg>